PathFileType	4	(X/Y/Z)	/Users/mathieubourgeois/Desktop/Analyse/Traitement/Sujet_04/Data/Transformed_Sujet_04_velo_100.trc
DataRate	CameraRate	NumFrames	NumMarkers	Units	OrigDataRate	OrigDataStartFrame	OrigNumFrames
120.000000	120.000000	5	36	mm	120.000000	0	1948
Frame#	Time	RFHD			RANE			STRN			LANI			LKNE			T10			RHUM			RWRB			C7			LFWT			LTOE			RTOE			LWRA			LBWT			RBWT			RFWT			LKNI			RKNI			RKNE			LANE			RANI			LHEE			RHEE			LHUM			LRAD			RRAD			RWRA			LWRB			LFHD			LBHD			RBHD			RSHO			LSHO			CLAV			LCAR			RCAR			
		X1	Y1	Z1	X2	Y2	Z2	X3	Y3	Z3	X4	Y4	Z4	X5	Y5	Z5	X6	Y6	Z6	X7	Y7	Z7	X8	Y8	Z8	X9	Y9	Z9	X10	Y10	Z10	X11	Y11	Z11	X12	Y12	Z12	X13	Y13	Z13	X14	Y14	Z14	X15	Y15	Z15	X16	Y16	Z16	X17	Y17	Z17	X18	Y18	Z18	X19	Y19	Z19	X20	Y20	Z20	X21	Y21	Z21	X22	Y22	Z22	X23	Y23	Z23	X24	Y24	Z24	X25	Y25	Z25	X26	Y26	Z26	X27	Y27	Z27	X28	Y28	Z28	X29	Y29	Z29	X30	Y30	Z30	X31	Y31	Z31	X32	Y32	Z32	X33	Y33	Z33	X34	Y34	Z34	X35	Y35	Z35	X36	Y36	Z36	

1	0	316.47607421875	1463.98876953125	51.12957763671869	-108.0269622802735	321.8551940917969	147.4330139160156	-67.19252777099609	1216.474853515625	-31.34506034851082	-279.9327697753906	542.5909423828125	-134.8683471679688	4.96137046813968	846.38427734375	-262.9827575683594	-195.5009765625	1438.086547851562	-31.31460571289074	83.43780517578122	1072.126342773438	189.4299163818359	313.803466796875	905.735107421875	222.0790863037109	69.88890075683594	1501.05517578125	-20.73058128356942	-241.2158966064453	1162.406860351562	-162.7378845214845	-201.7647094726562	364.3796691894531	-158.0627136230469	112.4124298095703	271.327392578125	68.31523895263672	322.28466796875	943.1272583007812	-211.3168182373047	-407.8252258300781	1256.173461914062	-87.81967926025403	-411.3478393554688	1252.603393554688	44.84455490112292	-248.2943420410157	1180.424682617188	124.6919860839843	16.97324180603029	803.3674926757812	-147.0011901855469	-16.94110298156739	736.0732421875	43.35819244384761	-17.86998176574709	780.7131958007812	160.0215911865234	-326.8033142089844	550.288330078125	-220.4021148681641	-83.30579376220703	330.5918273925781	54.26574707031247	-376.6259460449219	561.2500610351562	-164.6459350585938	-161.1611785888672	305.7157897949219	110.2097473144531	79.29719543457034	1085.956420898438	-252.1092071533204	124.0927505493164	1107.597412109375	-306.1341857910157	128.8751220703125	1092.676147460938	237.9514465332031	324.1393127441406	918.275634765625	151.1786041259765	283.1932678222657	890.9832763671875	-260.5281982421875	310.7528686523438	1465.496704101562	-82.08511352539067	188.4373626708984	1577.837646484375	-65.15050506591804	196.3262329101562	1564.13818359375	76.18858337402337	82.34302520751952	1419.111206054688	141.6129455566405	91.14246368408206	1425.832763671875	-189.0677490234376	56.00653076171876	1334.360717773438	-32.16746139526374	397.3982543945313	918.3851318359375	-295.051025390625	401.9141845703124	932.1857299804688	235.929443359375	
2	0.008333333333333333	316.8200378417969	1464.437133789062	50.14047241210932	-116.1366729736328	309.7003173828125	146.7526855468749	-66.62647247314453	1216.380249023438	-32.65023803710945	-273.0913696289062	556.6612548828125	-133.8582305908204	12.58266067504886	857.9683837890625	-264.2232666015626	-195.0093994140625	1437.838500976562	-31.45532989501964	83.50469970703122	1072.304443359375	188.7701721191406	312.0112915039062	908.5152587890625	225.5293579101562	70.37306976318359	1501.05859375	-22.23074340820321	-240.588150024414	1162.457153320312	-162.4899139404298	-191.347915649414	380.0087280273438	-158.3176574707032	104.2762451171875	256.1055297851562	68.25436401367188	322.2133178710938	943.2138061523438	-211.4551086425782	-407.0708312988281	1255.807373046875	-87.22913360595716	-410.30126953125	1251.866455078125	45.54364395141589	-247.3806762695313	1178.369140625	124.7476959228515	27.45236587524416	816.6700439453125	-147.5904388427735	-27.26347160339356	723.98779296875	44.65147018432613	-27.32238578796388	765.870361328125	158.0511016845703	-321.2997436523438	564.2017822265625	-219.9925994873047	-90.60110473632812	318.7513122558594	53.83174896240231	-369.9775085449219	574.2960815429688	-163.8740386962891	-167.9594421386719	293.6087341308594	108.2266387939453	79.20983886718753	1085.686157226562	-252.6801910400391	123.8863372802735	1107.239868164062	-306.9830017089844	128.9446258544922	1092.837524414062	237.1876220703125	324.1382751464844	918.0943603515625	151.0375061035156	283.2075195312501	891.0059204101562	-260.6185913085938	311.2798156738281	1465.864135742188	-83.10352325439457	188.724853515625	1577.975219726562	-66.44962310791023	196.4436340332031	1564.356201171875	74.9350509643554	82.95167541503905	1419.2646484375	140.1843109130859	91.20978546142581	1425.7744140625	-190.6664123535157	57.12235641479493	1335.055541992188	-33.13042831420906	397.4358825683594	918.349853515625	-295.0366821289062	401.8218688964843	932.0765991210938	235.9218444824219	
3	0.01666666666666667	317.2874755859375	1464.88525390625	49.16154479980463	-125.3163986206055	298.8716125488281	146.0381317138671	-65.89373016357422	1216.408447265625	-33.85245513916023	-265.7647399902344	570.52734375	-132.9478912353516	19.6291542053223	870.26171875	-266.2457275390626	-194.3540649414062	1437.725708007812	-31.58538246154797	83.76219940185544	1072.5703125	187.8518981933593	311.8814697265625	908.5763549804688	225.5033721923828	71.00132751464844	1501.096313476562	-23.69926071167001	-239.8963928222656	1162.731201171875	-162.3181304931642	-182.7947387695312	393.8808288574219	-157.5223693847657	94.90287780761717	241.6981811523438	68.21016693115234	322.17919921875	943.3239135742188	-211.630615234375	-406.2101440429688	1255.776733398438	-86.65206146240247	-409.2044372558594	1251.417358398438	46.27510833740222	-246.5902404785157	1176.555297851562	124.8718109130858	35.10933685302737	828.6198120117188	-148.4958190917969	-37.35305404663087	713.284912109375	45.87317276000972	-37.96109390258791	754.6857299804688	158.9816131591796	-313.8298645019531	576.5945434570312	-219.5098876953126	-98.97595977783203	308.135009765625	53.39046096801754	-362.7031860351562	585.82080078125	-163.193832397461	-177.4863891601562	284.481201171875	108.1068878173828	79.15105438232425	1085.561157226562	-253.4869079589844	123.7575378417969	1106.88232421875	-307.8522949218751	129.1405487060547	1093.089233398438	236.3987274169922	324.2378234863281	917.939697265625	150.8249206542968	283.2702331542969	891.0263061523438	-260.7125244140625	311.9654235839844	1466.212768554688	-84.09358215332036	189.1990509033203	1578.108032226562	-67.69260406494148	196.7607879638672	1564.596801757812	73.72453308105462	83.66303253173827	1419.534057617188	138.7694091796874	91.10443878173831	1425.554809570312	-192.8111877441407	57.77769470214844	1335.403686523438	-34.24177932739266	397.4878845214844	918.3298950195312	-295.0679016113281	401.7964477539062	931.9609985351562	235.8566131591797	
4	0.025	317.2879333496094	1464.6005859375	48.57486343383783	-135.5929718017578	289.4175720214844	145.3549194335937	-65.14633178710938	1216.547607421875	-35.07177352905281	-256.7925720214844	581.5422973632812	-133.6858520507813	26.58352088928226	881.971923828125	-267.6549987792969	-193.5586700439453	1437.757202148438	-31.68034744262707	84.17157745361325	1072.90771484375	186.8102111816406	313.1888122558594	906.9861450195312	223.9005737304687	71.81212615966797	1501.197387695312	-25.07187080383309	-239.0872344970703	1163.344848632812	-162.0704345703126	-171.3715515136718	407.5047607421875	-157.3273468017579	84.2377243041992	228.1465301513672	68.18268585205078	321.8822021484375	943.451171875	-212.3617401123047	-405.2843322753906	1256.11474609375	-86.08412170410168	-408.0688781738281	1251.316162109375	47.01966476440417	-245.9251251220703	1175.114624023438	125.0725479125976	39.06309890747072	840.8846435546875	-148.923324584961	-47.4861068725586	703.8677368164062	46.96442031860347	-49.1261901855469	745.9205322265625	162.4925537109374	-307.6546020507812	587.8404541015625	-218.022201538086	-108.4774017333984	298.9607543945312	52.90787887573239	-354.8630676269531	595.7266845703125	-162.4755401611329	-186.8597869873047	274.9065551757812	105.1039276123046	84.28760528564456	1083.673583984375	-249.1533813476563	125.0351715087891	1106.2705078125	-308.6948852539063	129.3482513427734	1094.260131835938	235.6638031005859	325.0345458984375	917.7608032226562	150.5513305664062	283.3699951171876	891.04248046875	-260.8819885253906	312.7716979980469	1466.536376953125	-85.04730224609379	189.803955078125	1578.148803710938	-68.69411468505866	197.2010650634766	1564.875610351562	72.49440765380852	84.51467895507811	1419.85107421875	137.3344116210937	93.84235382080081	1426.749633789062	-195.6256408691407	58.56529998779298	1335.616088867188	-35.48818588256844	397.5603637695313	918.289306640625	-295.1571350097656	400.3943786621093	933.2700805664062	237.4943695068359	
5	0.03333333333333333	318.7868347167969	1466.103393554688	47.50824356079096	-146.4648742675782	281.8258361816406	144.5893096923828	-64.94631958007812	1216.01904296875	-36.33552169799813	-247.467788696289	592.223388671875	-133.3711090087891	32.97742462158207	893.7083740234375	-268.8621826171876	-192.7151489257812	1437.851684570312	-32.70855331420909	84.78556823730466	1073.6455078125	185.4447174072265	313.5418701171875	907.2619018554688	223.6349945068359	72.75577545166016	1501.807861328125	-26.60313034057625	-238.3678741455078	1164.183837890625	-162.1285552978517	-155.7776336669922	421.2587585449219	-157.2658843994141	72.54267120361327	215.5521697998047	67.77573394775391	321.9235534667969	943.3895874023438	-212.771224975586	-404.3049011230469	1257.11669921875	-85.75328063964855	-406.8883361816406	1251.841918945312	47.70232772827136	-245.4474029541016	1174.098388671875	124.9292373657226	46.04721832275393	853.5009155273438	-149.3466033935547	-57.66500473022462	694.8512573242188	47.73106002807612	-59.32822418212893	737.9277954101562	163.5705261230468	-298.7449340820312	597.88818359375	-217.6741790771485	-118.7359466552734	291.0380859375	52.56063461303707	-346.3411560058594	604.333251953125	-161.8917388916016	-197.3787231445312	268.5135498046875	103.4932556152343	84.30935668945315	1083.656860351562	-250.3015136718751	125.1105422973633	1105.935668945312	-309.7707824707032	129.9853210449218	1095.1025390625	234.6273498535156	325.7522583007812	917.6522827148438	150.5234375	283.5372619628907	891.0621337890625	-261.1947937011719	313.5259704589844	1466.582641601562	-86.06908416748051	190.5144653320312	1578.107421875	-69.5096740722657	197.9075012207031	1565.553588867188	71.34920501708977	85.13803863525389	1420.329467773438	135.5445556640624	94.41910552978518	1426.771240234375	-197.0841369628907	59.75682830810548	1335.221435546875	-35.83713912963875	397.6270446777344	918.1304931640625	-295.4990844726562	400.9090881347656	933.5226440429688	237.656494140625	
